<?xml version="1.0" encoding="UTF-8" standalone="no" ?>
<!-- <!DOCTYPE svg PUBLIC "-//W3C//DTD SVG 1.1//EN" "http://www.w3.org/Graphics/SVG/1.1/DTD/svg11.dtd"> -->
<?xml-stylesheet type="text/css" href="heart-svg.css"?>
<svg xmlns="http://www.w3.org/2000/svg" xmlns:xlink="http://www.w3.org/1999/xlink" version="1.1" width="500" height="500" viewBox="0 0 500 500" xml:space="preserve">
<desc>Created with Fabric.js 4.6.0</desc>

  <style type="text/css">
    #ValHeart:hover {
      stroke: red;
      fill: purple;
    }
</style>

<defs>
</defs>

<rect width="100%" height="100%" fill="rgb(255,0,0,0.4)" /> /* Added */
<circle cx="50%" cy="45%" r="200" fill="rgb(255,200,200)" stroke="rgb(255,0,0)" /> /* Added */
<!-- <text x="50%" y="50%" font-size="16" text-anchor="middle" fill="rgb(255,255,255,1)">Happy Valentines Day!</text> /* if here, gets layed over */ -->
<!-- <circle cx="60" cy="4.346" r="2" fill="black"/>
<circle cx="71" cy="4.346" r="2" fill="black"/>
<circle cx="80" cy="13.973" r="2" fill="black"/>
<circle cx="80" cy="25.738" r="2" fill="black"/> -->
<g transform="matrix(4.38 0 0 4.46 268.31 276.15)" id="MssjSHtxtHLVm4WHNMBiQ"  >
<path id="ValHeart"  vector-effect="non-scaling-stroke" style="stroke: none; stroke-width: 1; stroke-dasharray: none; stroke-linecap: butt; stroke-dashoffset: 0; stroke-linejoin: miter; stroke-miterlimit: 4; fill: rgb(255,0,0,0.5); fill-rule: nonzero; opacity: 1;" transform=" translate(-44, -46)" d="M 60 4.346 C 71 4.346 80 13.973 80 25.738 C 80 58.45 40 74.762 40 75.65299999999999 L 40 75.65299999999999 C 40 74.763 0 58.54 0 25.738 C 0 13.884 9 4.346 20 4.346 C 31.1 4.346 40 10.835 40 22.689 C 40 10.835 48.9 4.346 60 4.346 z" stroke-linecap="round" />
</g>
<text x="50%" y="49%" font-size="30" text-anchor="middle" fill="rgb(255,255,255,1)">Happy Valentines Day!</text>
<text>
  <textPath xlink:href="ValHeart">
  Happy Valentine's Day  Happy Valentine's Day  Happy Valentine's Day
  </textPath>
</text>

</svg>